<svg width="204" height="114" viewBox="0 0 204 114" fill="none" xmlns="http://www.w3.org/2000/svg">
<path d="M153.6 23.7776C159.954 23.1177 166.44 26.523 168.647 32.6166C169.117 33.9135 168.267 34.8583 167.062 35.101C165.519 35.4119 164.475 32.3546 163.613 31.2102C162.908 30.2871 162.039 29.5024 161.049 28.8955C158.145 27.1293 154.307 27.0499 151.046 27.7319C144.474 29.1068 142.827 36.3871 143.343 42.1581C143.395 42.7347 144.913 43.052 145.389 43.2109C147.548 43.9305 149.681 44.6495 151.516 46.0459C152.522 46.8082 153.432 47.6636 154.536 48.2841C155.426 47.8555 156.32 47.0075 157.119 46.3838C157.886 45.7891 158.705 45.2665 159.569 44.8228C169.282 39.8226 178.524 44.5845 182.326 54.2685C183.81 58.0492 183.575 61.993 182.307 65.813C179.762 73.485 173.081 78.7396 166.719 83.2196C163.514 85.483 160.473 87.6132 156.995 89.3939C156.08 89.7863 155.384 90.0571 154.44 90.3729C150.964 87.9867 147.04 86.1585 143.642 83.6659C143.078 83.2524 142.421 82.7738 142.321 82.0329C142.257 81.5568 142.43 81.1046 142.725 80.7344C143.172 80.1746 143.853 80.0603 144.524 80.2064C147.312 80.813 152.905 86.1761 155.17 85.9035C157.887 85.5767 168.807 77.2545 171.305 75.0674C172.654 73.8872 173.967 72.5448 175.085 71.1443C177.947 67.5544 180.054 62.9636 179.514 58.2557C179.108 54.7294 176.779 50.9758 174.019 48.7964C172.82 47.8502 171.025 46.7427 169.482 46.5388C168.754 46.4425 167.916 46.5262 167.181 46.5477C164.428 46.6284 161.817 47.538 159.569 49.1362C158.978 49.5576 158.415 50.0159 157.883 50.5084C153.507 54.6311 155.352 54.6123 150.728 50.1031C148.151 47.5917 143.433 45.9188 139.783 46.1585C139.644 45.3518 139.588 44.3904 139.544 43.5669C138.988 33.3176 141.975 24.3734 153.6 23.7776Z" fill="#FBF4F7"/>
<path d="M29.2547 50.5926C31.0389 50.3377 38.1013 50.8048 38.1599 53.4469C38.1929 54.9346 38.6727 59.3471 36.5672 59.4755C35.2603 58.9506 34.5331 55.9758 33.6288 54.8029C32.6914 53.587 31.6368 52.566 30.0083 52.5706C27.949 52.5764 25.8602 53.6777 25.9782 55.9731C25.9779 58.8464 29.3778 59.9555 31.6076 60.8434C33.8688 61.7439 35.7709 62.5514 37.5774 64.2987C40.3877 67.0166 40.1434 72.2515 37.467 74.9524C35.4115 77.0266 31.4708 77.7301 28.6945 77.6965C25.3953 77.3105 23.5989 77.0737 20.5251 75.7264C20.4066 74.204 20.0465 68.1926 21.8769 67.8448C25.1619 68.6772 22.7504 75.6777 31.0163 75.6575C34.526 73.2767 35.1113 70.963 31.1856 68.5051C26.9827 65.8735 21.1263 65.3894 20.6366 59.2429C20.2099 53.8862 24.2131 51.008 29.2547 50.5926Z" fill="#FBF4F7"/>
<path d="M67.3196 57.0363C67.7784 56.9579 68.358 56.983 68.8336 56.9677C72.9112 56.8365 76.3546 58.6773 76.5794 63.1551C76.7143 66.2302 76.5994 69.4004 76.6075 72.4757C76.6133 74.626 78.7008 74.9738 78.7168 75.7788C78.3618 76.3382 77.786 76.6749 77.159 76.8569C74.499 77.6293 71.736 77.8652 70.4535 74.9259C70.1652 75.2782 69.8923 75.5191 69.5351 75.7898C66.4072 78.1605 62.3521 78.3712 60.2285 74.6281C57.6379 67.9914 63.7423 66.7307 68.3145 65.2176C70.6417 64.4474 71.4304 62.4727 70.4662 60.2902C70.063 59.3772 69.2791 59.0325 68.3905 58.6986C67.6794 58.8921 67.2151 59.0679 66.5302 59.3359C65.2988 61.1024 66.1659 63.5222 63.9682 64.6164C63.2083 64.9947 62.3674 64.886 61.6766 64.4057C60.9917 63.9311 60.5318 63.1961 60.4044 62.3727C59.8374 58.5991 64.5549 57.4329 67.3196 57.0363ZM66.811 73.6897C68.4465 74.2847 69.6553 74.3329 70.3106 72.4187C70.7706 71.0751 71.0102 67.761 70.6328 66.4717C70.5411 66.4136 70.4924 66.3662 70.3955 66.3442C67.8261 67.7414 63.4745 70.4156 66.811 73.6897Z" fill="#FBF4F7"/>
<path d="M122.605 57.0391C124.911 56.6348 128.034 57.309 129.807 58.8964C130.784 59.7628 131.371 60.9854 131.438 62.2894C131.486 63.4231 131.096 64.5082 130.302 65.3127C127.632 68.0152 123.354 67.6462 119.891 67.7423C120.34 69.6953 121.167 71.8147 123.102 72.7445C124.868 73.5932 127.621 73.4733 129.136 72.1638C129.915 71.4902 130.074 70.7598 131.144 70.4102C131.533 70.4795 131.404 70.3997 131.635 70.6987C131.701 71.1447 131.675 71.2204 131.57 71.6589C131.234 72.5441 130.946 73.1362 130.386 73.9145C127.543 77.9783 121.308 78.6234 117.419 75.7694C112.028 71.8146 112.564 61.8645 118.235 58.3795C119.666 57.4996 120.993 57.2774 122.605 57.0391ZM119.664 65.9132C120.3 65.8848 122.058 65.8484 122.55 65.6939C126.455 65.3795 128.103 59.5324 123.366 58.8022C119.672 59.6962 120.234 63.241 119.664 65.9132Z" fill="#FBF4F7"/>
<path d="M49.5136 57.0394C51.7497 56.5844 54.9947 57.3912 56.6661 58.9717C58.5021 60.708 59.0752 63.5174 57.1513 65.3978C54.5155 67.9741 50.2402 67.7003 46.8326 67.717C47.4178 70.2875 48.1948 72.467 51.139 73.1088C55.1255 73.9779 55.2127 72.2198 57.8456 70.4469C58.2198 70.4204 58.0797 70.3746 58.3679 70.619C58.5215 70.977 58.4846 71.2757 58.4767 71.6655C56.7723 77.3451 48.9435 79.1986 44.4017 75.8347C39.8551 72.4671 39.5225 64.9251 42.7793 60.5672C44.5747 58.1648 46.6649 57.457 49.5136 57.0394ZM49.405 65.7018C54.1207 65.4928 54.5423 58.2149 49.7678 58.8961C46.4254 60.6581 47.2053 63.0005 46.5069 65.9147C46.9986 65.8916 49.1535 65.699 49.405 65.7018Z" fill="#FBF4F7"/>
<path d="M153.592 57.0352C154.898 56.7899 160.703 57.0321 160.967 58.9551C161.397 62.0958 160.332 66.5089 157.596 61.2993C156.879 59.933 155.336 58.3468 153.646 58.8008C152.351 59.0794 150.881 59.9557 151.261 61.5659C151.844 63.598 155.818 64.6073 157.64 65.3975C158.417 65.7341 159.156 66.1511 159.845 66.6418C162.406 68.4855 162.918 71.902 161.157 74.5504C159.677 76.7731 156.467 77.3529 153.959 77.7148C151.651 77.7633 148.892 77.1397 146.614 76.6739C146.463 75.8827 146.349 72.1369 146.609 71.4601C147.886 68.1386 150.181 74.5586 151.044 75.0612C152.334 75.8137 153.066 75.6503 154.225 75.9904C154.487 75.8825 154.747 75.7705 155.006 75.6545C156.087 75.1638 156.634 74.583 157.051 73.4822C154.902 68.8604 147.188 70.1309 146.409 64.42C145.722 59.3894 149.26 57.7242 153.592 57.0352Z" fill="#FBF4F7"/>
<path d="M87.5763 57.0356C89.7904 56.7554 92.266 57.1554 94.1175 58.4365C96.4633 60.0597 97.4756 63.9448 94.3622 65.3271C93.7143 65.6147 93.1431 65.6774 92.4536 65.7826C92.3318 65.7309 92.2109 65.6772 92.0907 65.6217C89.3451 64.3452 90.3466 61.7841 89.7053 59.5278C89.6247 59.2808 89.3419 58.883 89.0783 58.8366C87.0558 58.4811 85.5951 60.6091 85.1779 62.1752C84.4302 64.9817 84.5348 67.6728 85.8465 70.2545C86.5085 71.5576 88.0731 72.7107 89.4475 73.0666C91.0245 73.4715 92.3433 72.9757 93.6927 72.1844C94.512 71.6633 95.9491 69.6557 96.8238 69.939C97.3547 70.7169 96.2229 72.872 95.6901 73.5776C94.174 75.5857 92.098 76.997 89.6044 77.3959C84.2277 78.2561 79.6926 74.7458 78.9208 69.4C78.4751 66.2917 78.9056 63.1244 80.8297 60.5316C82.5308 58.2393 84.8429 57.4409 87.5763 57.0356Z" fill="#FBF4F7"/>
<path d="M103.73 57.0396C105.606 56.6999 105.135 59.2337 105.159 60.5167C106.05 59.211 106.962 57.9854 108.547 57.3666C111.449 56.233 115.055 58.2922 113.541 61.6538C112.973 62.9158 111.96 63.3451 110.715 63.7825C109.041 63.3327 107.917 62.2993 106.331 61.7922C105.837 61.634 105.403 63.8475 105.374 64.2221C105.201 66.4426 104.584 73.0867 105.853 74.8036C106.576 75.0254 108.144 75.4061 108.153 76.2927C107.282 77.5252 98.122 77.2411 96.627 76.5886C97.4143 75.5044 98.4925 74.7293 99.3626 73.6739C98.7079 69.9102 99.8549 65.0094 98.9199 61.1232C98.6973 60.1984 97.0655 60.5985 96.7633 59.4911C97.1082 57.9845 102.272 57.2706 103.73 57.0396Z" fill="#FBF4F7"/>
<path d="M139.428 51.469C141.084 52.2203 140.383 55.8417 140.269 57.3204C141.407 57.2577 144.998 57.0059 145.382 58.3388C145.048 59.7615 141.383 59.502 140.287 59.4353C140.385 63.1626 140.254 66.9698 140.381 70.7197C140.578 76.5501 143.417 72.5945 145.093 73.1712C145.831 74.8492 143.8 76.0329 142.587 76.6933C139.566 78.1124 135.155 78.0387 134.455 73.9099C134.231 72.6635 134.134 71.3329 134.165 70.0626C134.25 66.5707 134.017 62.9632 134.203 59.4864L134.099 59.4903C133.456 59.508 131.29 59.4418 131.357 58.5429C131.993 57.2707 135.118 56.6635 136.399 55.6023C137.762 54.474 138.326 52.3468 139.428 51.469Z" fill="#FBF4F7"/>
</svg>
